<?xml version="1.0" encoding="UTF-8"?>
<svg version="1.1" xmlns="http://www.w3.org/2000/svg" width="1024" height="1024">
<path d="M0 0 C337.92 0 675.84 0 1024 0 C1024 337.92 1024 675.84 1024 1024 C686.08 1024 348.16 1024 0 1024 C0 686.08 0 348.16 0 0 Z " fill="#22282C" transform="translate(0,0)"/>
<path d="M0 0 C97.35 0 194.7 0 295 0 C295 88.11 295 176.22 295 267 C279.49 267 263.98 267 248 267 C248 193.74 248 120.48 248 45 C181.67 45 115.34 45 47 45 C47 103.08 47 161.16 47 221 C94.65868825 220.36750852 94.65868825 220.36750852 142.31445312 219.55859375 C151.57324219 219.48632812 151.57324219 219.48632812 155.92028809 219.47290039 C158.93070652 219.45810342 161.9365231 219.39865299 164.94567871 219.31079102 C192.94105465 218.52886339 192.94105465 218.52886339 201.77196503 226.55909729 C204.83536745 229.84552421 207.44006925 233.31707691 210 237 C211.54580754 238.91010061 213.14716369 240.76185663 214.75 242.625 C215.41644531 243.47578125 216.08289063 244.3265625 216.76953125 245.203125 C218.51508562 247.39194624 220.29245067 249.50573091 222.13671875 251.609375 C222.68295898 252.23376465 223.22919922 252.8581543 223.79199219 253.50146484 C224.86193567 254.71967646 225.93656893 255.93379054 227.01660156 257.14306641 C227.50483398 257.70171387 227.99306641 258.26036133 228.49609375 258.8359375 C228.93107178 259.32626465 229.3660498 259.8165918 229.81420898 260.32177734 C231 262 231 262 233 267 C156.11 267 79.22 267 0 267 C0 178.89 0 90.78 0 0 Z " fill="#FEFEFE" transform="translate(357,239)"/>
<path d="M0 0 C7.87058294 5.98726488 11.90302863 14.19424528 14.1875 23.6640625 C15.55715097 36.21318916 14.51687133 49.07794264 7 59.6015625 C0.85607644 66.74108988 -7.30469 71.91215926 -16.77246094 72.86035156 C-29.39372623 73.75583625 -39.50349044 72.19134787 -49.6875 64.1015625 C-58.19357287 55.93511504 -61.78692781 44.84601697 -62.125 33.3515625 C-61.92846771 22.72653568 -59.13938453 12.38817169 -51.76953125 4.46875 C-36.95585701 -9.3505468 -17.18961152 -11.18426647 0 0 Z " fill="#F9F9F9" transform="translate(508.8125,625.3359375)"/>
<path d="M0 0 C6.68678885 6.23385129 12.4797001 13.82143805 13.16113281 23.22314453 C13.20703576 25.85722618 13.23528241 28.49055179 13.25 31.125 C13.270625 32.02476562 13.29125 32.92453125 13.3125 33.8515625 C13.37789433 45.2301763 10.02268074 54.2051807 2.4765625 62.71875 C-5.65472572 70.49305483 -15.51003917 72.71249646 -26.41503906 72.52124023 C-36.98177726 72.02963383 -45.42713751 68.484291 -53 61 C-60.10586818 52.49472671 -62.56336244 43.56803984 -62.4375 32.625 C-62.42992676 31.70178955 -62.42235352 30.7785791 -62.41455078 29.82739258 C-62.15962929 19.27606175 -59.37211982 10.7466848 -52 3 C-37.44476334 -10.2628055 -16.10988902 -12.08991672 0 0 Z " fill="#F9F9F9" transform="translate(757,626)"/>
<path d="M0 0 C9.34631654 6.33627143 15.95564713 14.2790625 19.01171875 25.26953125 C19.01171875 26.58953125 19.01171875 27.90953125 19.01171875 29.26953125 C12.74171875 29.26953125 6.47171875 29.26953125 0.01171875 29.26953125 C-1.30828125 26.62953125 -2.62828125 23.98953125 -3.98828125 21.26953125 C-5.55327705 19.285538 -5.55327705 19.285538 -7.30078125 17.95703125 C-7.83316406 17.50714844 -8.36554688 17.05726563 -8.9140625 16.59375 C-16.91022686 11.48885411 -24.84920704 11.33126499 -33.98828125 12.26953125 C-40.45783529 14.05880612 -45.0818992 17.38172138 -48.73828125 23.01171875 C-49.15078125 23.75679687 -49.56328125 24.501875 -49.98828125 25.26953125 C-50.40078125 26.01460937 -50.81328125 26.7596875 -51.23828125 27.52734375 C-56.4178989 39.00163562 -55.63900506 54.85610801 -51.375 66.49609375 C-47.9546349 73.33682395 -42.93353923 78.93673396 -35.67578125 81.68359375 C-27.05122166 83.56394831 -17.85436323 83.41710175 -9.98828125 79.26953125 C-4.18418443 75.36292762 -3.3969911 73.08695094 0.01171875 66.26953125 C6.28171875 66.26953125 12.55171875 66.26953125 19.01171875 66.26953125 C17.20526986 73.1150218 15.14663507 78.52797575 11.01171875 84.26953125 C10.31046875 85.28015625 9.60921875 86.29078125 8.88671875 87.33203125 C1.98782293 95.22264335 -8.04209188 99.61346982 -18.3125 100.46142578 C-33.11123745 101.35416354 -45.27348237 100.10660392 -56.99609375 90.14453125 C-68.84475779 78.99284745 -73.85223766 66.21812767 -74.39306641 49.98388672 C-74.59832741 33.73763113 -71.02838477 18.51715827 -59.55078125 6.33203125 C-43.73689252 -8.0823983 -18.59895904 -10.77037759 0 0 Z " fill="#F9F9F9" transform="translate(286.98828125,597.73046875)"/>
<path d="M0 0 C0.94101562 0.49757813 1.88203125 0.99515625 2.8515625 1.5078125 C13.6406279 7.76023585 19.16800329 16.23912531 23 28 C23 28.99 23 29.98 23 31 C9.62208895 32.19209108 9.62208895 32.19209108 4 31 C1.39478092 28.69812835 0.55418539 26.81515922 -0.74609375 23.62109375 C-2.853714 19.21544518 -6.76899801 17.18400293 -11 15 C-18.49018779 12.50327074 -28.52729477 12.75040177 -35.6875 16.125 C-43.31171458 20.69697457 -47.29379506 27.75888192 -49.59375 36.171875 C-51.09292565 46.60844395 -51.59250689 59.33156444 -47 69 C-46.67128906 69.7115625 -46.34257812 70.423125 -46.00390625 71.15625 C-42.54082767 77.57912238 -36.88354747 81.70548418 -30 84 C-21.24329081 84.64746577 -12.64282057 84.89484014 -5 80 C-1.82292688 77.14739392 0.48970574 74.27022888 2.0859375 70.296875 C4 68 4 68 5.92504883 67.60131836 C8.36388501 67.50653356 10.75000572 67.56496548 13.1875 67.6875 C14.4549707 67.72133789 14.4549707 67.72133789 15.74804688 67.75585938 C17.83278798 67.81475037 19.91661804 67.90443202 22 68 C20.34028579 78.29022811 15.53095261 87.69772186 7 94 C-6.77768286 101.93887269 -20.71758011 104.39356735 -36.5078125 101.31640625 C-48.27276655 97.27744054 -58.2327808 89.31553786 -63.94140625 78.25390625 C-72.00920358 61.07634515 -72.40916814 41.80113168 -66 24 C-60.91525236 12.45479051 -52.88948777 4.37677528 -41.51953125 -1.02734375 C-28.92747071 -5.88846479 -12.088173 -6.61133086 0 0 Z " fill="#F9F9FA" transform="translate(415,596)"/>
<path d="M0 0 C6.26417717 6.04817106 8.94699289 12.62373098 11 21 C11 25.95 11 30.9 11 36 C-7.48 36 -25.96 36 -45 36 C-43.19867632 45.01439826 -43.19867632 45.01439826 -38 52 C-31.54445292 55.9322662 -25.35758267 55.77853491 -18 55 C-14.38454134 53.83275755 -11.71355517 52.33853109 -9.8671875 48.875 C-7.64634691 46.64486719 -7.03409471 46.70618653 -3.98828125 46.609375 C-2.42920861 46.63591241 -0.87038169 46.68354401 0.6875 46.75 C1.88342773 46.77707031 1.88342773 46.77707031 3.10351562 46.8046875 C5.06952449 46.85177753 7.03491494 46.92352101 9 47 C8.01044422 55.10054963 3.25549811 60.69609416 -3.0625 65.6796875 C-12.39810822 72.04145278 -23.04427866 72.32492242 -34 71 C-44.84034282 68.35144057 -52.92873929 61.84524212 -58.74609375 52.4296875 C-64.37592661 41.52079018 -64.61222277 28.75171861 -61.375 17.0625 C-58.03118197 7.51040445 -51.59398303 -0.30557827 -42.69921875 -5.2890625 C-28.39196826 -11.97379466 -12.4359922 -9.67715434 0 0 Z " fill="#F9F9F9" transform="translate(877,627)"/>
<path d="M0 0 C6.6 0 13.2 0 20 0 C20.43755615 1.34296143 20.8751123 2.68592285 21.32592773 4.06958008 C23.36198387 10.31759021 25.39965137 16.56507432 27.4375 22.8125 C27.98448044 24.489953 27.98448044 24.489953 28.54251099 26.20129395 C33.14177088 40.30299621 37.75024281 54.4004924 42.52319336 68.44458008 C42.84425049 69.3961499 43.16530762 70.34771973 43.49609375 71.328125 C43.76607178 72.1212207 44.0360498 72.91431641 44.31420898 73.73144531 C45.04094073 76.13542942 45.54604228 78.53121247 46 81 C46.66 81 47.32 81 48 81 C48.11827148 80.15099121 48.23654297 79.30198242 48.35839844 78.42724609 C49.03025139 74.83840598 50.05540024 71.60807817 51.265625 68.1640625 C51.61052979 67.17317879 51.61052979 67.17317879 51.96240234 66.16227722 C52.46074393 64.7306331 52.96101485 63.29965939 53.4630127 61.86929321 C58.5902486 47.24768411 63.48072644 32.55440507 68.25 17.8125 C68.53975708 16.91726624 68.82951416 16.02203247 69.12805176 15.09967041 C70.7559638 10.06769995 72.37863065 5.03409031 74 0 C80.6 0 87.2 0 94 0 C91.18985375 9.8456203 87.76158623 19.46680584 84.375 29.125 C83.72045859 30.9967162 83.06600066 32.86846159 82.41162109 34.74023438 C76.44440155 51.79235378 70.41470281 68.82245237 64.37255859 85.84814453 C64.02054382 86.84012848 63.66852905 87.83211243 63.30584717 88.85415649 C62.64490704 90.71622707 61.98366867 92.57819182 61.32208252 94.44003296 C61.02968689 95.26355255 60.73729126 96.08707214 60.43603516 96.93554688 C60.18149567 97.65190308 59.92695618 98.36825928 59.66470337 99.10632324 C59.09403603 100.73210027 58.54486807 102.36539578 58 104 C50.74 104 43.48 104 36 104 C34.48986328 99.61654297 34.48986328 99.61654297 32.94921875 95.14453125 C31.53029408 91.0332838 30.10914813 86.92280643 28.6875 82.8125 C28.31561554 81.73708954 27.94373108 80.66167908 27.56057739 79.55368042 C20.50046441 59.15735914 13.24372625 38.83436262 5.89526367 18.5402832 C5.50026672 17.44588928 5.10526978 16.35149536 4.69830322 15.22393799 C3.95579431 13.16683877 3.21068388 11.11067612 2.46258545 9.05560303 C2.13647278 8.15110413 1.81036011 7.24660522 1.47436523 6.31469727 C1.18810776 5.52539322 0.90185028 4.73608917 0.60691833 3.92286682 C0 2 0 2 0 0 Z " fill="#FAFAFA" transform="translate(115,593)"/>
<path d="M0 0 C5.09600957 3.83289609 7.23969457 8.69986653 8.890625 14.75 C9.39620149 19.38903489 9.35893381 23.97091261 9.28125 28.6328125 C9.27559021 29.92822968 9.26993042 31.22364685 9.26409912 32.55831909 C9.24897607 35.96814019 9.20981442 39.37725733 9.1652832 42.7868042 C9.12403839 46.27964765 9.10602643 49.77260715 9.0859375 53.265625 C9.04330294 60.09406472 8.97306669 66.92192588 8.890625 73.75 C3.280625 73.75 -2.329375 73.75 -8.109375 73.75 C-8.12395752 72.24171631 -8.13854004 70.73343262 -8.15356445 69.17944336 C-8.2116659 63.56771489 -8.2888989 57.95638269 -8.37182617 52.3449707 C-8.40501966 49.91925502 -8.43306884 47.49346314 -8.45581055 45.06762695 C-8.48945831 41.57470316 -8.54178131 38.08247415 -8.59765625 34.58984375 C-8.60404617 33.51041 -8.6104361 32.43097626 -8.61701965 31.3188324 C-8.73224744 25.3780205 -9.21259403 20.98196378 -12.109375 15.75 C-16.47352117 11.65861296 -20.87209377 11.45560726 -26.60546875 11.5390625 C-30.09645008 11.83315453 -32.26077026 12.71528233 -35.109375 14.75 C-39.03120869 19.73178874 -40.2026215 23.48994894 -40.31469727 29.70214844 C-40.33464249 30.68286316 -40.35458771 31.66357788 -40.37513733 32.67401123 C-40.40020607 34.2507663 -40.40020607 34.2507663 -40.42578125 35.859375 C-40.44656235 36.94132141 -40.46734344 38.02326782 -40.48875427 39.13800049 C-40.55410431 42.59193613 -40.61306729 46.04594737 -40.671875 49.5 C-40.71507404 51.84245571 -40.75868878 54.1849038 -40.80273438 56.52734375 C-40.90977087 62.26815182 -41.01107948 68.00903588 -41.109375 73.75 C-46.719375 73.75 -52.329375 73.75 -58.109375 73.75 C-58.109375 48.34 -58.109375 22.93 -58.109375 -3.25 C-52.829375 -3.25 -47.549375 -3.25 -42.109375 -3.25 C-41.779375 0.05 -41.449375 3.35 -41.109375 6.75 C-40.47 5.863125 -39.830625 4.97625 -39.171875 4.0625 C-29.09416 -8.08834495 -12.6628788 -7.50392818 0 0 Z " fill="#FBFBFB" transform="translate(593.109375,623.25)"/>
<path d="M0 0 C9.90466605 -0.48003228 18.87134349 2.04677201 26.41796875 8.5703125 C29.84583496 11.79319004 31.98745681 14.83678367 33.79296875 19.1953125 C33.79296875 20.5153125 33.79296875 21.8353125 33.79296875 23.1953125 C31.2286836 23.33090925 28.67161659 23.42964438 26.10546875 23.5078125 C25.38423828 23.54970703 24.66300781 23.59160156 23.91992188 23.63476562 C19.74610841 23.73005817 18.30851947 23.64105664 15.0234375 20.80078125 C14.28738281 19.94097656 13.55132813 19.08117187 12.79296875 18.1953125 C8.02587688 15.01725125 2.29400805 15.81390711 -3.20703125 16.1953125 C-6.76245377 17.03834243 -6.76245377 17.03834243 -9.20703125 18.1953125 C-10.0609023 21.50098739 -10.0609023 21.50098739 -10.20703125 25.1953125 C-7.45661321 28.78327773 -5.01629879 29.83736283 -0.6640625 30.7578125 C0.94758789 31.11746094 0.94758789 31.11746094 2.59179688 31.484375 C3.71005859 31.71898437 4.82832031 31.95359375 5.98046875 32.1953125 C26.31158078 36.53579624 26.31158078 36.53579624 33.79296875 44.1953125 C37.3194139 50.54291377 37.63040809 55.80341242 35.66796875 62.6953125 C32.99343323 69.90919729 29.18359962 73.79494803 22.23046875 77.0703125 C10.59859829 82.05304283 -3.55408559 81.7159014 -15.39453125 77.52734375 C-21.91887646 74.43734137 -26.81623956 69.57000088 -30.20703125 63.1953125 C-30.58113526 61.20253622 -30.92028707 59.20252173 -31.20703125 57.1953125 C-28.30962503 57.05991969 -25.41857504 56.96104421 -22.51953125 56.8828125 C-21.70291016 56.84091797 -20.88628906 56.79902344 -20.04492188 56.75585938 C-15.61023707 56.66608843 -13.84548117 56.66240579 -10.32421875 59.6015625 C-9.62554688 60.4575 -8.926875 61.3134375 -8.20703125 62.1953125 C-2.14453111 65.6426165 4.17282097 66.44377155 10.91796875 64.62109375 C14.32395161 63.279988 15.73247804 62.28604856 17.79296875 59.1953125 C18.29296875 56.6953125 18.29296875 56.6953125 17.79296875 54.1953125 C14.8954091 51.51238689 12.22619609 50.57172646 8.41796875 49.6953125 C6.83242188 49.32019531 6.83242188 49.32019531 5.21484375 48.9375 C2.89793914 48.43497503 0.57450311 47.96181798 -1.75390625 47.515625 C-10.3209943 45.85084151 -18.43692051 44.05967601 -24.70703125 37.6328125 C-25.20203125 36.8284375 -25.69703125 36.0240625 -26.20703125 35.1953125 C-26.56023438 34.62554688 -26.9134375 34.05578125 -27.27734375 33.46875 C-29.51277644 28.00227175 -29.12895222 20.57374441 -27.58984375 14.93359375 C-24.04825616 7.96011376 -16.31567273 3.65102501 -9.20703125 1.1953125 C-6.12589857 0.55583213 -3.12851359 0.27685961 0 0 Z " fill="#F9F9F9" transform="translate(646.20703125,617.8046875)"/>
<path d="M0 0 C1.3422577 0.00032605 1.3422577 0.00032605 2.71163172 0.00065869 C3.74259881 -0.0039401 4.7735659 -0.0085389 5.83577442 -0.01327705 C7.54775734 -0.00556171 7.54775734 -0.00556171 9.29432577 0.0023095 C10.499977 -0.00010491 11.70562823 -0.00251933 12.94781435 -0.00500691 C16.30491171 -0.0096835 19.66178242 -0.00533502 23.01885921 0.00275737 C26.63510458 0.00931725 30.25133616 0.00438966 33.86758322 0.00087517 C40.95569026 -0.0041747 48.04375077 0.00148455 55.13185204 0.01072548 C63.37810975 0.02109135 71.6243573 0.02103977 79.8706203 0.0205529 C94.57867338 0.02005189 109.28670473 0.02922446 123.99474996 0.04373711 C138.28251441 0.05782787 152.57025973 0.06490781 166.85803121 0.06424493 C167.73810406 0.06420497 168.6181769 0.06416501 169.52491862 0.06412385 C170.40343657 0.06408349 171.28195451 0.06404314 172.18709421 0.06400156 C188.4311483 0.06331252 204.67519423 0.06919686 220.91924568 0.07815478 C226.67410014 0.08117688 232.4289531 0.08223501 238.18380827 0.08268708 C245.19148486 0.08336774 252.19914771 0.08781182 259.20681847 0.09701989 C262.78560697 0.10165116 266.36437783 0.10467851 269.94316953 0.10342568 C273.81381629 0.10213633 277.68442729 0.10855209 281.55506796 0.11583489 C282.69862062 0.11428629 283.84217329 0.11273769 285.02037907 0.11114216 C286.04873841 0.1143666 287.07709776 0.11759105 288.13661951 0.12091321 C289.47863368 0.12196984 289.47863368 0.12196984 290.84775925 0.12304783 C292.86120504 0.24954766 292.86120504 0.24954766 293.86120504 1.24954766 C293.95784264 2.68826274 293.98492324 4.13171137 293.98425287 5.57366818 C293.98624392 6.51269264 293.98823497 7.4517171 293.99028635 8.41919684 C293.98737351 9.46294909 293.98446067 10.50670134 293.98145956 11.58208245 C293.9827412 13.23107747 293.9827412 13.23107747 293.98404872 14.91338551 C293.98570676 18.62775063 293.98017688 22.34207141 293.97473043 26.05643243 C293.9744486 28.70679358 293.97456209 31.35715194 293.97517294 34.00751275 C293.97569836 39.72934023 293.97254963 45.45115634 293.9669351 51.17298096 C293.9588226 59.4458708 293.95620514 67.71875511 293.95494711 75.99164849 C293.95275619 89.41249756 293.94609504 102.83334056 293.93664449 116.25418633 C293.92747139 129.29455061 293.92039006 142.33491324 293.91613668 155.37528008 C293.9157426 156.58013871 293.9157426 156.58013871 293.91534055 157.80933792 C293.91403555 161.83878244 293.91277184 165.86822698 293.91152865 169.89767152 C293.90115481 203.3483013 293.88353542 236.79892374 293.86120504 270.24954766 C286.90117057 270.27481604 279.94114784 270.29237988 272.98107809 270.3044793 C270.61128193 270.30952107 268.24148889 270.31635431 265.87170309 270.32498711 C262.47366465 270.33705956 259.07566719 270.34277737 255.67761129 270.34720391 C254.61095739 270.3523652 253.54430349 270.35752648 252.44532675 270.36284417 C251.46438543 270.3629197 250.48344412 270.36299523 249.47277731 270.36307305 C248.60451818 270.36529366 247.73625906 270.36751427 246.84168905 270.36980218 C244.86120504 270.24954766 244.86120504 270.24954766 243.86120504 269.24954766 C243.7632856 266.41745793 243.73127909 263.60975485 243.74095052 260.77724236 C243.73966889 259.42838845 243.73966889 259.42838845 243.73836136 258.05228496 C243.73670379 255.01507346 243.74223243 251.97791624 243.74767965 248.94070977 C243.74796149 246.77310216 243.74780386 244.60549445 243.74723715 242.43788689 C243.74694904 236.53316745 243.75284787 230.62846814 243.7598111 224.72375339 C243.76604248 218.5604419 243.76664827 212.39713 243.76783651 206.23381585 C243.77095047 194.55365866 243.77916472 182.87351078 243.789186 171.19335771 C243.80242981 155.41635132 243.80784653 139.6393427 243.81368822 123.86233205 C243.82310457 98.99139694 243.84302306 74.12048148 243.86120504 49.24954766 C178.52120504 49.24954766 113.18120504 49.24954766 45.86120504 49.24954766 C45.86120504 106.00954766 45.86120504 162.76954766 45.86120504 221.24954766 C93.23566498 220.65650618 93.23566498 220.65650618 140.60754293 219.8982293 C149.80737203 219.83048028 149.80737203 219.83048028 154.12559408 219.81789178 C157.118327 219.80401048 160.10699844 219.74823089 163.09861654 219.66591424 C190.95106176 218.931776 190.95106176 218.931776 199.48573107 226.71869344 C202.27651687 229.73592204 204.61473939 232.80593013 206.86120504 236.24954766 C206.53120504 236.90954766 206.20120504 237.56954766 205.86120504 238.24954766 C205.2395043 237.25732201 204.61780355 236.26509637 203.97726339 235.24280328 C199.85944836 229.61009159 195.50495281 225.15870651 188.56622976 223.42741174 C179.30773877 222.24420266 169.97013481 222.45686024 160.65568441 222.62898797 C156.97784132 222.68392307 153.30190451 222.66191637 149.62365621 222.64676446 C138.91090342 222.64648225 128.19842537 222.76773879 117.48620504 222.87454766 C81.53683004 223.06017266 81.53683004 223.06017266 44.86120504 223.24954766 C44.86120504 165.16954766 44.86120504 107.08954766 44.86120504 47.24954766 C111.19120504 47.24954766 177.52120504 47.24954766 245.86120504 47.24954766 C245.86120504 120.50954766 245.86120504 193.76954766 245.86120504 269.24954766 C261.37120504 269.24954766 276.88120504 269.24954766 292.86120504 269.24954766 C292.86120504 181.13954766 292.86120504 93.02954766 292.86120504 2.24954766 C195.51120504 2.24954766 98.16120504 2.24954766 -2.13879496 2.24954766 C-2.13879496 90.35954766 -2.13879496 178.46954766 -2.13879496 269.24954766 C74.75120504 269.24954766 151.64120504 269.24954766 230.86120504 269.24954766 C230.86120504 269.57954766 230.86120504 269.90954766 230.86120504 270.24954766 C201.06801192 270.27233769 171.27481908 270.29004566 141.48161912 270.30061299 C137.96792965 270.30186377 134.45424019 270.30315808 130.94055074 270.3044793 C129.89123843 270.30487277 129.89123843 270.30487277 128.82072788 270.30527418 C117.47911336 270.30963094 106.13750389 270.31751853 94.79589237 270.32670046 C83.16693013 270.33603682 71.53797085 270.34152833 59.90900505 270.34363616 C53.37359201 270.3449437 46.83819043 270.34803234 40.30278105 270.35527772 C34.15926657 270.36203384 28.01576834 270.36416546 21.8722505 270.36265534 C19.61025174 270.36293185 17.34825248 270.36493938 15.08625692 270.36875314 C12.01248572 270.37368402 8.93877694 270.3725482 5.86500448 270.36980218 C4.50365089 270.37417144 4.50365089 270.37417144 3.11479521 270.37862897 C-3.02467375 270.36366887 -3.02467375 270.36366887 -4.13879496 269.24954766 C-4.23718233 267.8231941 -4.26618544 266.39199079 -4.26742941 264.9622485 C-4.27065386 264.03142423 -4.2738783 263.10059996 -4.27720046 262.1415689 C-4.27565186 261.10696279 -4.27410326 260.07235667 -4.27250773 259.00639886 C-4.27477328 257.91664708 -4.27703884 256.82689531 -4.27937305 255.70412076 C-4.28574535 252.02206829 -4.28488163 248.34005232 -4.28405863 244.65799493 C-4.2870481 242.03058355 -4.29045013 239.40317261 -4.29423624 236.77576226 C-4.30255912 230.36164413 -4.30529182 223.94753518 -4.30584862 217.53341211 C-4.306323 212.32225728 -4.30837385 207.1111055 -4.31154925 201.89995164 C-4.32036025 187.14086948 -4.32496792 172.38179462 -4.32421877 157.62270982 C-4.32417882 156.82627285 -4.32413886 156.02983588 -4.32409769 155.20926446 C-4.32405681 154.41186044 -4.32401593 153.61445641 -4.32397381 152.79288863 C-4.3235672 139.86447118 -4.33313928 126.93608284 -4.34723606 114.00767381 C-4.36158044 100.7480649 -4.36850732 87.48847021 -4.36764228 74.22885334 C-4.36730964 66.77847438 -4.37008593 59.32812592 -4.38082033 51.87775391 C-4.39084615 44.87403345 -4.39060987 37.87037862 -4.3833037 30.86665505 C-4.38225256 28.2890142 -4.3846518 25.71136941 -4.39066416 23.13373536 C-4.39831263 19.62897269 -4.39378703 16.12443742 -4.38603312 12.61968011 C-4.39117668 11.58730471 -4.39632024 10.55492932 -4.40161967 9.49126983 C-4.39702088 8.55783781 -4.39242208 7.62440579 -4.38768393 6.66268796 C-4.38800998 5.44801629 -4.38800998 5.44801629 -4.38834262 4.2088058 C-4.01261927 1.25891223 -2.91440762 0.34004363 0 0 Z " fill="#0A0E11" transform="translate(359.13879495859146,236.7504523396492)"/>
<path d="M0 0 C5.94 0 11.88 0 18 0 C18 34.32 18 68.64 18 104 C12.06 104 6.12 104 0 104 C0 69.68 0 35.36 0 0 Z " fill="#F7F7F7" transform="translate(784,593)"/>
<path d="M0 0 C4.40156783 2.53971367 7.72800145 6.37426403 9.16918945 11.29589844 C9.93781518 14.90724545 9.85094739 18.50745002 9.875 22.1875 C9.895625 22.9609375 9.91625 23.734375 9.9375 24.53125 C9.97970048 30.81912145 9.01462916 36.44033801 5.01171875 41.4609375 C-0.42446748 45.78489252 -5.12700386 47.96922646 -12.29296875 47.75 C-17.48412037 46.97084028 -21.7654238 44.44560545 -25.25 40.5625 C-30.68920719 32.5636659 -30.44049733 22.7718569 -29.375 13.4375 C-27.91020169 8.19440218 -25.73619747 4.0714157 -21.25 0.875 C-14.61890455 -2.44054772 -6.89063463 -3.07125429 0 0 Z " fill="#22262A" transform="translate(742.375,635.5625)"/>
<path d="M0 0 C5.67046261 2.55810343 8.35949705 6.24826884 10.65625 12.0234375 C13.08144719 20.67604781 12.72553407 31.1710834 8.84765625 39.32421875 C5.93959437 43.87869105 1.84631082 46.96482456 -3.421875 48.3125 C-9.9499123 49.12850466 -15.01798932 48.13533616 -20.421875 44.3125 C-24.71746862 40.43120221 -27.04367018 35.96347058 -27.64306641 30.17724609 C-27.76230031 27.76060312 -27.79307079 25.35698054 -27.796875 22.9375 C-27.82136719 22.12539063 -27.84585937 21.31328125 -27.87109375 20.4765625 C-27.89928897 14.61195594 -26.71596073 10.20781681 -23.421875 5.3125 C-16.68749429 -1.08516168 -9.00125821 -2.55519588 0 0 Z " fill="#22262A" transform="translate(493.421875,634.6875)"/>
<path d="M0 0 C66.33 0 132.66 0 201 0 C201 73.26 201 146.52 201 222 C200.34 222 199.68 222 199 222 C199 149.4 199 76.8 199 2 C133.66 2 68.32 2 1 2 C1 58.76 1 115.52 1 174 C48.37445994 173.40695852 48.37445994 173.40695852 95.74633789 172.64868164 C104.94616699 172.58093262 104.94616699 172.58093262 109.26438904 172.56834412 C112.25712196 172.55446282 115.2457934 172.49868323 118.2374115 172.41636658 C146.08985672 171.68222834 146.08985672 171.68222834 154.62452602 179.46914577 C157.41531182 182.48637438 159.75353435 185.55638247 162 189 C161.67 189.66 161.34 190.32 161 191 C160.37829926 190.00777435 159.75659851 189.01554871 159.11605835 187.99325562 C154.99824332 182.36054393 150.64374777 177.90915885 143.70502472 176.17786407 C134.44653373 174.994655 125.10892977 175.20731258 115.79447937 175.37944031 C112.11663627 175.43437541 108.44069947 175.4123687 104.76245117 175.3972168 C94.04969838 175.39693459 83.33722033 175.51819113 72.625 175.625 C36.675625 175.810625 36.675625 175.810625 0 176 C0 117.92 0 59.84 0 0 Z " fill="#121618" transform="translate(404,284)"/>
<path d="M0 0 C4.87348719 2.75616691 7.36665167 5.99482114 9.5234375 11.1171875 C9.5234375 13.0971875 9.5234375 15.0771875 9.5234375 17.1171875 C-3.0165625 17.1171875 -15.5565625 17.1171875 -28.4765625 17.1171875 C-27.30413381 8.91018664 -25.74841128 5.77556463 -19.4765625 0.6796875 C-13.64010463 -2.2576983 -6.06916495 -2.16345628 0 0 Z " fill="#202428" transform="translate(860.4765625,633.8828125)"/>
<path d="M0 0 C0 0.66 0 1.32 0 2 C-1.19625 2.04125 -2.3925 2.0825 -3.625 2.125 C-8.75927349 2.71671592 -10.64605572 5.24677664 -14 9 C-14.66 9 -15.32 9 -16 9 C-16.04898438 9.69867187 -16.09796875 10.39734375 -16.1484375 11.1171875 C-16.22320313 12.02726563 -16.29796875 12.93734375 -16.375 13.875 C-16.47941406 15.23238281 -16.47941406 15.23238281 -16.5859375 16.6171875 C-17 19 -17 19 -19 21 C-19.34649722 15.45604455 -18.77354493 10.89992938 -16 6 C-11.23167589 0.72357577 -6.92386912 -0.13063904 0 0 Z " fill="#1A1C1F" transform="translate(571,634)"/>
<path d="M0 0 C0.99 0.33 1.98 0.66 3 1 C3 1.66 3 2.32 3 3 C3.59683594 3.26683594 4.19367187 3.53367187 4.80859375 3.80859375 C10.05815176 6.66263152 13.02393056 11.37551884 14.875 16.9375 C15.26696582 18.28685361 15.64832896 19.63958836 16 21 C15 22 15 22 11.18359375 22.09765625 C9.60153318 22.09098089 8.01948841 22.07901875 6.4375 22.0625 C5.63119141 22.05798828 4.82488281 22.05347656 3.99414062 22.04882812 C1.99606244 22.03700518 -0.00197783 22.01906914 -2 22 C-2 21.67 -2 21.34 -2 21 C3.28 21 8.56 21 14 21 C11.30642325 12.56793365 7.89206343 8.42849784 1 3 C0.34 2.34 -0.32 1.68 -1 1 C-0.67 0.67 -0.34 0.34 0 0 Z " fill="#101213" transform="translate(666,620)"/>
<path d="M0 0 C5.61 0 11.22 0 17 0 C16 6 16 6 14 8 C13.06576355 4.98968256 12.95550089 4.13349732 14 1 C9.38 1 4.76 1 0 1 C0 0.67 0 0.34 0 0 Z " fill="#BCBFC0" transform="translate(869,674)"/>
<path d="M0 0 C0.99 0.33 1.98 0.66 3 1 C3 4.96 3 8.92 3 13 C2.67 12.01 2.34 11.02 2 10 C1.34 10 0.68 10 0 10 C0 6.7 0 3.4 0 0 Z " fill="#343739" transform="translate(615,637)"/>
<path d="M0 0 C5.94 0 11.88 0 18 0 C18 0.33 18 0.66 18 1 C16.95199219 1.06058594 15.90398438 1.12117187 14.82421875 1.18359375 C13.44529952 1.26801738 12.06639395 1.35266447 10.6875 1.4375 C9.65206055 1.49647461 9.65206055 1.49647461 8.59570312 1.55664062 C5.52838465 1.74927415 2.93031848 2.02322717 0 3 C0 2.01 0 1.02 0 0 Z " fill="#F0F1F1" transform="translate(615,675)"/>
<path d="M0 0 C1.25541557 3.76624671 0.37061958 5.37188934 -1 9 C-1.66 9 -2.32 9 -3 9 C-3.33 7.02 -3.66 5.04 -4 3 C-3.01 3.33 -2.02 3.66 -1 4 C-0.67 2.68 -0.34 1.36 0 0 Z " fill="#101213" transform="translate(164,665)"/>
<path d="M0 0 C0.33 0.99 0.66 1.98 1 3 C3.01508358 3.73323796 3.01508358 3.73323796 5 4 C3.68 5.32 2.36 6.64 1 8 C0 7 0 7 -0.0625 3.4375 C-0.041875 2.303125 -0.02125 1.16875 0 0 Z " fill="#16191D" transform="translate(552,621)"/>
</svg>
